<svg width="54" height="51" viewBox="0 0 54 51" fill="none" xmlns="http://www.w3.org/2000/svg">
<path d="M48.729 43.9397C47.7289 43.9397 46.9378 43.049 47.1049 42.0176C47.2366 41.2076 47.9956 40.647 48.8163 40.647H50.6931C52.0678 40.647 53.3231 39.7234 53.6046 38.3775C53.9907 36.5295 52.5716 34.8848 50.787 34.8848H42.2606C41.1839 34.8848 40.2035 34.1102 40.0965 33.0385C39.973 31.807 40.937 30.769 42.1437 30.769H48.6212C49.8156 30.769 50.917 29.9689 51.1491 28.7975C51.4611 27.2236 50.2503 25.83 48.729 25.83H40.4974C39.1334 25.83 38.0279 24.7245 38.0279 23.3605C38.0279 21.9965 39.1334 20.891 40.4974 20.891H50.3754C52.2975 20.891 53.8491 19.2217 53.6507 17.2609C53.4779 15.552 51.9369 14.3057 50.219 14.3057H48.8155C47.9956 14.3057 47.2358 13.7451 47.1049 12.9351C46.9378 11.9037 47.7289 11.013 48.729 11.013H49.0229C50.0996 11.013 51.0808 10.2376 51.1878 9.16586C51.3105 7.9344 50.3466 6.89721 49.1406 6.89721H40.909C40.2274 6.89721 39.6742 6.34405 39.6742 5.66247C39.6742 4.98089 40.2274 4.42772 40.909 4.42772H43.2607C44.3375 4.42772 45.3187 3.6523 45.4257 2.58053C45.5483 1.34908 44.5844 0.31189 43.3785 0.31189H10.5696C9.49285 0.31189 8.51164 1.08731 8.40463 2.15907C8.28197 3.39053 9.2459 4.42772 10.4518 4.42772H11.5993C12.4192 4.42772 13.179 4.98829 13.3099 5.79829C13.4778 6.82972 12.6867 7.72038 11.6866 7.72038H6.08083C4.36371 7.72038 2.82192 8.96665 2.64905 10.6755C2.45067 12.6363 4.00234 14.3057 5.92443 14.3057H7.81936C9.37926 14.3057 10.7778 15.4738 10.8593 17.032C10.9466 18.6932 9.62456 20.0679 7.98234 20.0679H5.25767C3.54054 20.0679 1.99875 21.3141 1.82589 23.023C1.6275 24.9838 3.17917 26.6532 5.10126 26.6532H20.7414V35.708H6.03226C4.83785 35.708 3.73645 36.5081 3.50432 37.6795C3.19234 39.2534 4.40322 40.647 5.92443 40.647C6.92458 40.647 7.71564 41.5377 7.54853 42.5691C7.41683 43.3791 6.65787 43.9397 5.83717 43.9397H4.4345C2.71738 43.9397 1.17559 45.1859 1.00272 46.8948C0.804339 48.8556 2.35601 50.525 4.2781 50.525H48.5726C50.2898 50.525 51.8316 49.2787 52.0044 47.5698C52.2028 45.6091 50.6511 43.9397 48.729 43.9397Z" fill="#DFEAF5"/>
</svg>
