<svg width="31" height="37" viewBox="0 0 31 37" fill="none" xmlns="http://www.w3.org/2000/svg">
<path d="M1.38951 30.2095L18.3846 7.30578H4.80235C2.98398 7.30578 1.50969 5.83149 1.50969 4.01312C1.50969 2.19475 2.98398 0.720459 4.80235 0.720459H25.6276C27.7374 0.720459 29.4718 2.45487 29.4718 4.56382C29.4718 5.40756 29.1911 6.25213 28.7219 6.86127L11.7993 29.5313H27.0278C28.8462 29.5313 30.3205 31.0055 30.3205 32.8239C30.3205 34.6423 28.8462 36.1166 27.0278 36.1166H4.38995C2.37401 36.1166 0.686523 34.476 0.686523 32.4123C0.686523 31.5686 0.921126 30.8187 1.38951 30.2095Z" fill="#315680"/>
</svg>
